<?xml version="1.0" standalone="no"?>
<!DOCTYPE svg PUBLIC "-//W3C//DTD SVG 20010904//EN"
 "http://www.w3.org/TR/2001/REC-SVG-20010904/DTD/svg10.dtd">
<svg version="1.0" xmlns="http://www.w3.org/2000/svg"
 width="180.000000pt" height="180.000000pt" viewBox="0 0 180.000000 180.000000"
 preserveAspectRatio="xMidYMid meet">
<metadata>
Created by potrace 1.14, written by Peter Selinger 2001-2017
</metadata>
<g transform="translate(0.000000,180.000000) scale(0.100000,-0.100000)"
fill="#000000" stroke="none">
<path d="M868 1585 c-2 -1 -28 -5 -58 -9 -338 -34 -607 -343 -599 -686 5 -214
108 -408 288 -542 193 -145 465 -169 693 -61 l79 37 52 -52 c46 -45 58 -52 92
-52 l39 0 -69 70 -70 70 44 43 c59 56 127 149 155 211 54 119 61 154 60 296
-1 118 -4 144 -27 208 -80 229 -288 413 -512 452 -57 11 -162 20 -167 15z
m233 -87 c90 -33 143 -66 215 -132 79 -71 142 -169 175 -270 22 -66 27 -101
27 -186 1 -92 -3 -118 -29 -195 -33 -99 -95 -200 -164 -266 -25 -24 -47 -44
-49 -44 -3 0 -65 60 -140 132 -125 123 -138 133 -173 133 l-38 0 153 -153 153
-153 -68 -32 c-95 -43 -144 -54 -248 -58 -113 -4 -196 14 -291 61 -175 86
-313 266 -345 449 -15 90 -6 233 21 318 40 130 162 277 288 350 105 60 172 75
317 73 111 -1 140 -5 196 -27z"/>
</g>
</svg>
