<svg width="36" height="36" viewBox="0 0 36 36" fill="none" xmlns="http://www.w3.org/2000/svg">
<path d="M30.9375 3.9375H5.0625C4.44023 3.9375 3.9375 4.44023 3.9375 5.0625V30.9375C3.9375 31.5598 4.44023 32.0625 5.0625 32.0625H30.9375C31.5598 32.0625 32.0625 31.5598 32.0625 30.9375V5.0625C32.0625 4.44023 31.5598 3.9375 30.9375 3.9375ZM29.5312 29.5312H6.46875V6.46875H29.5312V29.5312ZM10.7156 18.4219H12.498C12.6281 18.4219 12.7371 18.3164 12.7371 18.1828V15.409C12.7371 14.7164 13.2961 14.1574 13.9852 14.1574H21.2168V16.0348C21.2168 16.2352 21.4453 16.3441 21.6 16.2211L25.4355 13.2082C25.5586 13.1133 25.5586 12.927 25.4355 12.832L21.6 9.81914C21.4453 9.69609 21.2168 9.80859 21.2168 10.0055V11.8828H13.9816C12.0445 11.8828 10.4766 13.4578 10.4766 15.402V18.1758C10.4766 18.3164 10.582 18.4219 10.7156 18.4219ZM10.568 23.1645L14.4035 26.1773C14.5582 26.3004 14.7867 26.1879 14.7867 25.991V24.1137H22.0184C23.9555 24.1137 25.5234 22.5387 25.5234 20.5945V17.8207C25.5234 17.6906 25.418 17.5816 25.2844 17.5816H23.502C23.3719 17.5816 23.2629 17.6871 23.2629 17.8207V20.5945C23.2629 21.2871 22.7039 21.8461 22.0148 21.8461H14.7867V19.9688C14.7867 19.7684 14.5582 19.6594 14.4035 19.7824L10.568 22.7953C10.4449 22.8832 10.4449 23.0695 10.568 23.1645Z" fill="black"/>
</svg>
