<svg width="33" height="33" viewBox="0 0 33 33" fill="none" xmlns="http://www.w3.org/2000/svg">
<path d="M9.28125 22.6875C9.55475 22.6875 9.81706 22.5789 10.0105 22.3855C10.2039 22.1921 10.3125 21.9298 10.3125 21.6562C10.3125 21.3827 10.2039 21.1204 10.0105 20.927C9.81706 20.7336 9.55475 20.625 9.28125 20.625C9.00775 20.625 8.74544 20.7336 8.55205 20.927C8.35865 21.1204 8.25 21.3827 8.25 21.6562C8.25 21.9298 8.35865 22.1921 8.55205 22.3855C8.74544 22.5789 9.00775 22.6875 9.28125 22.6875ZM6.1875 21.6562C6.1875 21.9298 6.07885 22.1921 5.88545 22.3855C5.69206 22.5789 5.42975 22.6875 5.15625 22.6875C4.88275 22.6875 4.62044 22.5789 4.42705 22.3855C4.23365 22.1921 4.125 21.9298 4.125 21.6562C4.125 21.3827 4.23365 21.1204 4.42705 20.927C4.62044 20.7336 4.88275 20.625 5.15625 20.625C5.42975 20.625 5.69206 20.7336 5.88545 20.927C6.07885 21.1204 6.1875 21.3827 6.1875 21.6562Z" fill="black"/>
<path d="M33 22.6875C33 23.7815 32.5654 24.8307 31.7918 25.6043C31.0182 26.3779 29.969 26.8125 28.875 26.8125H4.125C3.03098 26.8125 1.98177 26.3779 1.20818 25.6043C0.434597 24.8307 0 23.7815 0 22.6875V19.6144C0 18.7523 0.216563 17.9025 0.629063 17.1456L5.72756 7.80038C5.99366 7.31229 6.38635 6.90492 6.86434 6.6211C7.34233 6.33728 7.88797 6.1875 8.44387 6.1875H24.5561C25.112 6.1875 25.6577 6.33728 26.1357 6.6211C26.6137 6.90492 27.0063 7.31229 27.2724 7.80038L32.3709 17.1435C32.7834 17.9025 33 18.7523 33 19.6144V22.6875ZM7.53844 8.78625L3.2835 16.5887C3.55575 16.5289 3.83625 16.5 4.125 16.5H28.875C29.1637 16.5 29.4443 16.5289 29.7165 16.5866L25.4616 8.78625C25.3727 8.62381 25.2417 8.4883 25.0824 8.39394C24.9231 8.29959 24.7413 8.24986 24.5561 8.25H8.44387C8.25836 8.24949 8.07615 8.29904 7.91643 8.39342C7.75672 8.48779 7.62542 8.6235 7.53638 8.78625H7.53844ZM2.0625 20.625V22.6875C2.0625 23.2345 2.2798 23.7591 2.66659 24.1459C3.05339 24.5327 3.57799 24.75 4.125 24.75H28.875C29.422 24.75 29.9466 24.5327 30.3334 24.1459C30.7202 23.7591 30.9375 23.2345 30.9375 22.6875V20.625C30.9375 20.078 30.7202 19.5534 30.3334 19.1666C29.9466 18.7798 29.422 18.5625 28.875 18.5625H4.125C3.57799 18.5625 3.05339 18.7798 2.66659 19.1666C2.2798 19.5534 2.0625 20.078 2.0625 20.625Z" fill="black"/>
</svg>
