<svg width="39" height="39" viewBox="0 0 39 39" fill="none" xmlns="http://www.w3.org/2000/svg">
<path d="M13.4062 29.25H25.5938V31.6875H13.4062V29.25Z" fill="black"/>
<path d="M15.8438 34.125H23.1562V36.5625H15.8438V34.125Z" fill="black"/>
<path d="M19.5 2.4375C16.2677 2.4375 13.1677 3.72154 10.8821 6.00714C8.59653 8.29274 7.31249 11.3927 7.31249 14.625C7.23007 16.3963 7.56937 18.1618 8.30248 19.7763C9.03558 21.3908 10.1415 22.8082 11.5294 23.9119C12.7481 25.0453 13.4062 25.6912 13.4062 26.8125H15.8437C15.8437 24.57 14.4909 23.3147 13.1747 22.1081C12.0356 21.2358 11.1278 20.0975 10.5307 18.7929C9.93364 17.4883 9.66558 16.0572 9.74999 14.625C9.74999 12.0391 10.7772 9.55919 12.6057 7.73071C14.4342 5.90223 16.9141 4.875 19.5 4.875C22.0859 4.875 24.5658 5.90223 26.3943 7.73071C28.2228 9.55919 29.25 12.0391 29.25 14.625C29.333 16.0583 29.0631 17.4901 28.4638 18.7947C27.8646 20.0994 26.9544 21.2371 25.8131 22.1081C24.5091 23.3269 23.1562 24.5456 23.1562 26.8125H25.5937C25.5937 25.6912 26.2397 25.0453 27.4706 23.8997C28.8575 22.7979 29.9629 21.3826 30.696 19.7702C31.4291 18.1578 31.7689 16.3944 31.6875 14.625C31.6875 13.0245 31.3723 11.4397 30.7598 9.96105C30.1473 8.48239 29.2496 7.13885 28.1179 6.00714C26.9861 4.87542 25.6426 3.9777 24.1639 3.36522C22.6853 2.75274 21.1005 2.4375 19.5 2.4375Z" fill="black"/>
</svg>
