<svg width="35" height="35" viewBox="0 0 35 35" fill="none" xmlns="http://www.w3.org/2000/svg">
<path d="M17.5 0C7.83501 0 0 7.83501 0 17.5C0 27.165 7.83501 35 17.5 35C27.165 35 35 27.165 35 17.5C35 7.83501 27.165 0 17.5 0ZM23.3876 5.46653C23.9007 5.47059 24.3987 5.65982 24.775 6.03613L27.6873 8.94725C28.4923 9.75228 28.4371 11.1086 27.5664 11.9814C26.6936 12.8542 25.3351 12.9061 24.5323 12.1033L21.6212 9.19217C20.8162 8.38935 20.8725 7.02867 21.7431 6.15805C22.2057 5.69432 22.8062 5.46195 23.3876 5.46653ZM18.5893 9.31295L24.4127 15.1352L14.949 24.5966L9.12567 18.7733L18.5893 9.31295ZM7.61413 19.8759L13.7566 26.0184L6.07603 27.5565L7.61413 19.8759Z" fill="black"/>
</svg>
