<svg width="42" height="32" viewBox="0 0 42 32" fill="none" xmlns="http://www.w3.org/2000/svg">
<path d="M39.5 6H32C30.073 6 30.002 4.203 30 4V3C30 1.742 28.61 0 26 0H16.031C13.096 0 12.031 1.794 12.031 3V3.994C12.03 4.076 11.983 6 10 6H2.5C1.8372 6.00079 1.20178 6.26444 0.73311 6.73311C0.264441 7.20178 0.000793929 7.8372 0 8.5L0 26.5C0 27.878 1.121 29 2.5 29H8.5C8.63261 29 8.75979 28.9473 8.85355 28.8536C8.94732 28.7598 9 28.6326 9 28.5C9 28.3674 8.94732 28.2402 8.85355 28.1464C8.75979 28.0527 8.63261 28 8.5 28H2.5C1.673 28 1 27.327 1 26.5V14H9C8.33808 15.5838 7.99814 17.2835 8 19C8 26.168 13.832 32 21 32C28.168 32 34 26.168 34 19C34 17.229 33.641 15.54 32.997 14H41V26.5C41 27.327 40.327 28 39.5 28H32.5C32.3674 28 32.2402 28.0527 32.1464 28.1464C32.0527 28.2402 32 28.3674 32 28.5C32 28.6326 32.0527 28.7598 32.1464 28.8536C32.2402 28.9473 32.3674 29 32.5 29H39.5C40.879 29 42 27.878 42 26.5V8.5C42 7.122 40.879 6 39.5 6ZM21 31C14.383 31 9 25.617 9 19C9 12.383 14.383 7 21 7C27.617 7 33 12.383 33 19C33 25.617 27.617 31 21 31ZM32.75 13C32.6787 13.0005 32.6084 13.0165 32.544 13.047C30.38 8.868 26.022 6 21 6C15.978 6 11.62 8.868 9.456 13.047C9.39157 13.0165 9.32127 13.0005 9.25 13H1V8.5C1 7.673 1.673 7 2.5 7H10C12.368 7 13.019 5.042 13.031 4V3C13.031 2.196 13.83 1 16.031 1H26C28.094 1 29 2.324 29 3V4C29 5.038 29.627 7 32 7H39.5C40.327 7 41 7.673 41 8.5V13H32.75Z" fill="black"/>
<path d="M9.5 5C9.63261 5 9.75979 4.94732 9.85355 4.85355C9.94732 4.75979 10 4.63261 10 4.5V3.5C10 2.673 9.327 2 8.5 2H4.5C3.673 2 3 2.673 3 3.5V4.5C3 4.63261 3.05268 4.75979 3.14645 4.85355C3.24021 4.94732 3.36739 5 3.5 5C3.63261 5 3.75979 4.94732 3.85355 4.85355C3.94732 4.75979 4 4.63261 4 4.5V3.5C4 3.36739 4.05268 3.24021 4.14645 3.14645C4.24021 3.05268 4.36739 3 4.5 3H8.5C8.63261 3 8.75979 3.05268 8.85355 3.14645C8.94732 3.24021 9 3.36739 9 3.5V4.5C9 4.63261 9.05268 4.75979 9.14645 4.85355C9.24021 4.94732 9.36739 5 9.5 5Z" fill="black"/>
<path d="M21 10C16.037 10 12 14.038 12 19C12 23.962 16.037 28 21 28C25.963 28 30 23.962 30 19C30 14.038 25.963 10 21 10ZM21 27C16.589 27 13 23.411 13 19C13 14.589 16.589 11 21 11C25.411 11 29 14.589 29 19C29 23.411 25.411 27 21 27Z" fill="black"/>
</svg>
