<svg width="45" height="36" viewBox="0 0 45 36" fill="none" xmlns="http://www.w3.org/2000/svg">
<path d="M15.75 13.5C13.268 13.5 11.25 15.518 11.25 18C11.25 20.482 13.268 22.5 15.75 22.5C18.232 22.5 20.25 20.482 20.25 18C20.25 15.518 18.232 13.5 15.75 13.5ZM43.875 29.25H26.7609C29.6789 26.3883 31.5 22.4086 31.5 18C31.5 9.30234 24.4477 2.25 15.75 2.25C7.05234 2.25 0 9.30234 0 18C0 26.6977 7.05234 33.75 15.75 33.75H43.875C44.4938 33.75 45 33.2437 45 32.625V30.375C45 29.7563 44.4938 29.25 43.875 29.25ZM15.75 24.75C12.0234 24.75 9 21.7266 9 18C9 14.2734 12.0234 11.25 15.75 11.25C19.4766 11.25 22.5 14.2734 22.5 18C22.5 21.7266 19.4766 24.75 15.75 24.75Z" fill="black"/>
</svg>
