<svg width="44" height="44" viewBox="0 0 44 44" fill="none" xmlns="http://www.w3.org/2000/svg">
<path d="M18.6906 3.16486L36.762 6.70057C37.0302 6.75304 37.2718 6.89709 37.4456 7.10807C37.6193 7.31905 37.7143 7.58385 37.7143 7.85714V36.1429C37.7143 36.4161 37.6193 36.6809 37.4456 36.8919C37.2718 37.1029 37.0302 37.247 36.762 37.2994L18.6906 40.8351C18.5198 40.8685 18.3439 40.8637 18.1752 40.8211C18.0066 40.7784 17.8495 40.6989 17.7152 40.5884C17.5809 40.4778 17.4727 40.3389 17.3985 40.1816C17.3242 40.0243 17.2857 39.8525 17.2857 39.6786V4.32143C17.2857 4.14748 17.3242 3.97569 17.3985 3.81839C17.4727 3.66108 17.5809 3.52217 17.7152 3.41161C17.8495 3.30105 18.0066 3.22159 18.1752 3.17892C18.3439 3.13626 18.5198 3.13146 18.6906 3.16486ZM23.5714 20.4286C23.1547 20.4286 22.755 20.5941 22.4603 20.8888C22.1656 21.1835 22 21.5832 22 22C22 22.4168 22.1656 22.8165 22.4603 23.1112C22.755 23.4059 23.1547 23.5714 23.5714 23.5714C23.9882 23.5714 24.3879 23.4059 24.6826 23.1112C24.9773 22.8165 25.1428 22.4168 25.1428 22C25.1428 21.5832 24.9773 21.1835 24.6826 20.8888C24.3879 20.5941 23.9882 20.4286 23.5714 20.4286ZM15.7143 7.07143V36.9286H7.46428C7.17948 36.9286 6.90431 36.8254 6.68967 36.6382C6.47503 36.451 6.33544 36.1924 6.29671 35.9103L6.28571 35.75V8.25C6.28572 7.9652 6.38886 7.69003 6.57605 7.47539C6.76325 7.26076 7.02184 7.12116 7.30399 7.08243L7.46428 7.07143H15.7143Z" fill="black"/>
</svg>
