<svg width="753" height="361" viewBox="0 0 753 361" xmlns="http://www.w3.org/2000/svg" xmlns:xlink="http://www.w3.org/1999/xlink">
    <g id="g1">
        <text id="TEZISCAM" xml:space="preserve" x="369" y="232" text-anchor="middle" font-family="Roboto" font-size="147.710571" fill="#000000" letter-spacing="2.954211">TEZISCAM</text>
        <path id="path1" fill="none" stroke="#646464" stroke-width="2" stroke-linecap="round" stroke-linejoin="round" d="M 420.147217 270.303833 C 420.46051 270.838806 420.776489 271.37204 421.095154 271.903442 Z M 421.095154 271.903442 C 452.026611 323.480621 508.482117 358 573 358 C 670.754395 358 750 278.754395 750 181 L 750 181 C 750 83.245605 670.754395 4 573 4 C 508.482117 4 452.026611 38.519379 421.095154 90.096558"/>
        <path id="-" fill="none" stroke="#646464" stroke-width="2" stroke-linecap="round" stroke-linejoin="round" d="M 474 272 C 498.414063 298.758728 533.423096 315 572.5 315 C 611.576904 315 646.585876 298.758728 671 272 M 671 90 C 646.651245 64.117645 610.8396 48 572.5 48 C 534.1604 48 499.348816 65.117645 475 91"/>
    </g>
</svg>
