<svg width="314" height="164" viewBox="0 0 314 164" fill="none" xmlns="http://www.w3.org/2000/svg">
<path d="M302.78 119.32V119.86C302.78 123.7 301.36 127 298.52 129.76C295.68 132.52 292.36 133.9 288.56 133.9C284.72 133.9 281.42 132.5 278.66 129.7C275.86 126.9 274.46 123.46 274.46 119.38C274.46 115.3 276 111.82 279.08 108.94H282.14C280.3 110.18 278.84 111.76 277.76 113.68C276.68 115.56 276.14 117.54 276.14 119.62C276.14 122.94 277.38 125.84 279.86 128.32C282.3 130.76 285.22 131.98 288.62 131.98C292.02 131.98 294.96 130.76 297.44 128.32C299.88 125.84 301.1 122.94 301.1 119.62C301.1 117.54 300.56 115.56 299.48 113.68C298.4 111.76 296.92 110.18 295.04 108.94H298.16C301.24 111.74 302.78 115.2 302.78 119.32ZM275 76.9248H302V78.8448H295.28C297.56 79.9648 299.36 81.6448 300.68 83.8848C302 86.1248 302.66 88.5248 302.66 91.0848C302.66 95.0048 301.28 98.3648 298.52 101.165C295.72 103.965 292.38 105.365 288.5 105.365C284.62 105.365 281.3 103.965 278.54 101.165C275.74 98.3648 274.34 95.0048 274.34 91.0848C274.34 88.5248 275.02 86.0848 276.38 83.7648C277.74 81.4048 279.54 79.7648 281.78 78.8448H275V76.9248ZM288.56 103.445C291.92 103.445 294.84 102.225 297.32 99.7848C299.76 97.3048 300.98 94.3848 300.98 91.0248C300.98 87.6248 299.76 84.7248 297.32 82.3248C294.84 79.9248 291.92 78.7248 288.56 78.7248C285.16 78.7248 282.22 79.9448 279.74 82.3848C277.26 84.7848 276.02 87.6648 276.02 91.0248C276.02 94.3848 277.28 97.3048 279.8 99.7848C282.28 102.225 285.2 103.445 288.56 103.445ZM280.7 50.9847C278.78 50.3847 277.24 49.2447 276.08 47.5647C274.92 45.8447 274.34 43.7647 274.34 41.3247C274.34 38.8847 275.22 36.7447 276.98 34.9047C278.74 33.0647 281.12 32.1447 284.12 32.1447L302 32.1447V34.0647L284.12 34.0647C281.8 34.0647 279.88 34.8247 278.36 36.3447C276.8 37.8647 276.02 39.7047 276.02 41.8647C276.02 43.9847 276.82 45.8847 278.42 47.5647C280.02 49.2047 281.88 50.0247 284 50.0247L302 50.0247V51.9447L284 51.9447C281.84 51.9447 279.98 52.7047 278.42 54.2247C276.82 55.7447 276.02 57.5847 276.02 59.7447C276.02 61.9047 276.82 63.7847 278.42 65.3847C280.02 66.9847 281.88 67.7847 284 67.7847L302 67.7847V69.7047L275 69.7047V67.7847H278.78C277.58 66.9847 276.54 65.8047 275.66 64.2447C274.78 62.6447 274.34 61.0047 274.34 59.3247C274.34 57.6047 274.94 55.9647 276.14 54.4047C277.3 52.8447 278.82 51.7047 280.7 50.9847Z" fill="#B51700"/>
<path d="M138.613 71.4959C140.868 70.7561 143.209 70.5776 145.636 70.9602C148.029 71.3257 150.21 72.1541 152.177 73.4453L154.245 69.3568L154.794 71.0291L153.211 74.1586C155.571 76.0503 157.221 78.4278 158.16 81.291L158.298 81.7091C159.154 84.3189 159.267 86.9758 158.639 89.6798C158.011 92.3837 156.785 94.7644 154.962 96.8217C153.105 98.8621 150.898 100.302 148.339 101.142C144.31 102.463 140.373 102.141 136.529 100.175C132.659 98.2165 130.055 95.1978 128.717 91.1184C127.378 87.0389 127.68 83.0812 129.621 79.245C131.562 75.4089 134.559 72.8259 138.613 71.4959ZM157.12 81.8426C156.281 79.2835 154.79 77.0923 152.649 75.269L148.306 83.9763L147.77 82.342L151.627 74.5937C149.803 73.396 147.766 72.6189 145.516 72.2625C143.266 71.906 141.102 72.0686 139.025 72.7502C135.275 73.9804 132.506 76.3621 130.718 79.8954C128.897 83.4116 128.601 87.0448 129.831 90.7948C131.053 94.5195 133.443 97.2716 137.002 99.051C140.535 100.839 144.177 101.117 147.927 99.8873C151.652 98.6654 154.421 96.2837 156.234 92.7421C158.047 89.2005 158.342 85.5673 157.12 81.8426Z" fill="#B51700"/>
<path d="M55.58 30V34.06H31.64V135H27.02V34.06H2.8V30H55.58ZM68.8789 30H106.539V34.06H73.4989V91.18H101.079V95.24H73.4989V130.94H106.539V135H68.8789V30ZM166.339 130.94V135H113.559L159.759 34.06H113.559V30H166.759L120.419 130.94H166.339ZM181.005 30H185.625V135H181.005V30ZM249.655 44.84C247.508 40.92 244.568 37.84 240.835 35.6C237.195 33.36 233.088 32.24 228.515 32.24C223.942 32.24 220.022 33.6867 216.755 36.58C213.582 39.38 211.995 43.2533 211.995 48.2V48.9C211.995 54.78 215.262 60.1467 221.795 65C224.595 67.0533 227.722 69.1067 231.175 71.16C234.722 73.12 238.222 75.2667 241.675 77.6C245.222 79.84 248.395 82.2667 251.195 84.88C254.088 87.4 256.422 90.5267 258.195 94.26C260.062 97.9933 260.995 102.1 260.995 106.58V107.98C260.995 116.847 257.962 123.893 251.895 129.12C245.922 134.347 238.502 136.96 229.635 136.96C217.968 136.96 208.915 132.153 202.475 122.54V114.98C204.902 120.3 208.448 124.64 213.115 128C217.875 131.267 223.755 132.9 230.755 132.9C237.755 132.9 243.822 130.66 248.955 126.18C254.088 121.7 256.655 115.727 256.655 108.26V107.42C256.655 102.753 255.442 98.5067 253.015 94.68C250.588 90.76 247.555 87.5867 243.915 85.16C240.275 82.64 236.308 80.0267 232.015 77.32C227.722 74.6133 223.755 72.0933 220.115 69.76C216.475 67.4267 213.442 64.4867 211.015 60.94C208.588 57.3933 207.375 53.52 207.375 49.32V48.34C207.375 41.8067 209.475 36.8133 213.675 33.36C217.875 29.9067 223.055 28.18 229.215 28.18C237.802 28.18 244.615 31.3533 249.655 37.7V44.84Z" fill="white"/>
</svg>
