<svg width="362" height="191" viewBox="0 0 362 191" fill="none" xmlns="http://www.w3.org/2000/svg">
<path d="M326.78 132.32V132.86C326.78 136.7 325.36 140 322.52 142.76C319.68 145.52 316.36 146.9 312.56 146.9C308.72 146.9 305.42 145.5 302.66 142.7C299.86 139.9 298.46 136.46 298.46 132.38C298.46 128.3 300 124.82 303.08 121.94H306.14C304.3 123.18 302.84 124.76 301.76 126.68C300.68 128.56 300.14 130.54 300.14 132.62C300.14 135.94 301.38 138.84 303.86 141.32C306.3 143.76 309.22 144.98 312.62 144.98C316.02 144.98 318.96 143.76 321.44 141.32C323.88 138.84 325.1 135.94 325.1 132.62C325.1 130.54 324.56 128.56 323.48 126.68C322.4 124.76 320.92 123.18 319.04 121.94H322.16C325.24 124.74 326.78 128.2 326.78 132.32ZM299 89.9248H326V91.8448H319.28C321.56 92.9648 323.36 94.6448 324.68 96.8848C326 99.1248 326.66 101.525 326.66 104.085C326.66 108.005 325.28 111.365 322.52 114.165C319.72 116.965 316.38 118.365 312.5 118.365C308.62 118.365 305.3 116.965 302.54 114.165C299.74 111.365 298.34 108.005 298.34 104.085C298.34 101.525 299.02 99.0848 300.38 96.7648C301.74 94.4048 303.54 92.7648 305.78 91.8448H299V89.9248ZM312.56 116.445C315.92 116.445 318.84 115.225 321.32 112.785C323.76 110.305 324.98 107.385 324.98 104.025C324.98 100.625 323.76 97.7248 321.32 95.3248C318.84 92.9248 315.92 91.7248 312.56 91.7248C309.16 91.7248 306.22 92.9448 303.74 95.3848C301.26 97.7848 300.02 100.665 300.02 104.025C300.02 107.385 301.28 110.305 303.8 112.785C306.28 115.225 309.2 116.445 312.56 116.445ZM304.7 63.9847C302.78 63.3847 301.24 62.2447 300.08 60.5647C298.92 58.8447 298.34 56.7647 298.34 54.3247C298.34 51.8847 299.22 49.7447 300.98 47.9047C302.74 46.0647 305.12 45.1447 308.12 45.1447L326 45.1447V47.0647L308.12 47.0647C305.8 47.0647 303.88 47.8247 302.36 49.3447C300.8 50.8647 300.02 52.7047 300.02 54.8647C300.02 56.9847 300.82 58.8847 302.42 60.5647C304.02 62.2047 305.88 63.0247 308 63.0247L326 63.0247V64.9447L308 64.9447C305.84 64.9447 303.98 65.7047 302.42 67.2247C300.82 68.7447 300.02 70.5847 300.02 72.7447C300.02 74.9047 300.82 76.7847 302.42 78.3847C304.02 79.9847 305.88 80.7847 308 80.7847L326 80.7847V82.7047L299 82.7047V80.7847H302.78C301.58 79.9847 300.54 78.8047 299.66 77.2447C298.78 75.6447 298.34 74.0047 298.34 72.3247C298.34 70.6047 298.94 68.9647 300.14 67.4047C301.3 65.8447 302.82 64.7047 304.7 63.9847Z" fill="#B51700"/>
<path d="M162.613 84.4959C164.868 83.7561 167.209 83.5776 169.636 83.9602C172.029 84.3257 174.21 85.1541 176.177 86.4453L178.245 82.3568L178.794 84.0291L177.211 87.1586C179.571 89.0503 181.221 91.4278 182.16 94.291L182.298 94.7091C183.154 97.3189 183.267 99.9758 182.639 102.68C182.011 105.384 180.785 107.764 178.962 109.822C177.105 111.862 174.898 113.302 172.339 114.142C168.31 115.463 164.373 115.141 160.529 113.175C156.659 111.217 154.055 108.198 152.717 104.118C151.378 100.039 151.68 96.0812 153.621 92.245C155.562 88.4089 158.559 85.8259 162.613 84.4959ZM181.12 94.8426C180.281 92.2835 178.79 90.0923 176.649 88.269L172.306 96.9763L171.77 95.342L175.627 87.5937C173.803 86.396 171.766 85.6189 169.516 85.2625C167.266 84.906 165.102 85.0686 163.025 85.7502C159.275 86.9804 156.506 89.3621 154.718 92.8954C152.897 96.4116 152.601 100.045 153.831 103.795C155.053 107.52 157.443 110.272 161.002 112.051C164.535 113.839 168.177 114.117 171.927 112.887C175.652 111.665 178.421 109.284 180.234 105.742C182.047 102.2 182.342 98.5673 181.12 94.8426Z" fill="#B51700"/>
<path d="M79.58 43V47.06H55.64V148H51.02V47.06H26.8V43H79.58ZM92.8789 43H130.539V47.06H97.4989V104.18H125.079V108.24H97.4989V143.94H130.539V148H92.8789V43ZM190.339 143.94V148H137.559L183.759 47.06H137.559V43H190.759L144.419 143.94H190.339ZM205.005 43H209.625V148H205.005V43ZM273.655 57.84C271.508 53.92 268.568 50.84 264.835 48.6C261.195 46.36 257.088 45.24 252.515 45.24C247.942 45.24 244.022 46.6867 240.755 49.58C237.582 52.38 235.995 56.2533 235.995 61.2V61.9C235.995 67.78 239.262 73.1467 245.795 78C248.595 80.0533 251.722 82.1067 255.175 84.16C258.722 86.12 262.222 88.2667 265.675 90.6C269.222 92.84 272.395 95.2667 275.195 97.88C278.088 100.4 280.422 103.527 282.195 107.26C284.062 110.993 284.995 115.1 284.995 119.58V120.98C284.995 129.847 281.962 136.893 275.895 142.12C269.922 147.347 262.502 149.96 253.635 149.96C241.968 149.96 232.915 145.153 226.475 135.54V127.98C228.902 133.3 232.448 137.64 237.115 141C241.875 144.267 247.755 145.9 254.755 145.9C261.755 145.9 267.822 143.66 272.955 139.18C278.088 134.7 280.655 128.727 280.655 121.26V120.42C280.655 115.753 279.442 111.507 277.015 107.68C274.588 103.76 271.555 100.587 267.915 98.16C264.275 95.64 260.308 93.0267 256.015 90.32C251.722 87.6133 247.755 85.0933 244.115 82.76C240.475 80.4267 237.442 77.4867 235.015 73.94C232.588 70.3933 231.375 66.52 231.375 62.32V61.34C231.375 54.8067 233.475 49.8133 237.675 46.36C241.875 42.9067 247.055 41.18 253.215 41.18C261.802 41.18 268.615 44.3533 273.655 50.7V57.84Z" fill="black"/>
</svg>
